# xmcd CD database file generated by Grip 3.2.0
# 
# Track frame offsets:
#       150
#       19030
#       36464
#       53872
#       71429
#       90209
#       107665
#       125137
#       144120
#       156664
#       174251
#       190816
#       219100
# 
# Disc length: 3310 seconds
# 
# Revision: 1
# Processed by: cddbd v1.5.2PL0 Copyright (c) Steve Scherf et al.
# Submitted via: Grip 3.2.0
# 
DISCID=ab0cec0d
DTITLE=Sonic Syndicate - Only inhuman (tour edition)
DYEAR=2008
DGENRE=Rock
TTITLE0=Aftermath
TTITLE1=Blue eyed fiend
TTITLE2=Psychic suicide
TTITLE3=Double agent 616
TTITLE4=Enclave
TTITLE5=Denied
TTITLE6=Callous
TTITLE7=Only inhuman
TTITLE8=All about us
TTITLE9=Unknown entity
TTITLE10=Flashback
TTITLE11=Freelancer (bonus track)
TTITLE12=Sonic Syndicate media player (data)
EXTD=
EXTT0=
EXTT1=
EXTT2=
EXTT3=
EXTT4=
EXTT5=
EXTT6=
EXTT7=
EXTT8=
EXTT9=
EXTT10=
EXTT11=
EXTT12=
PLAYORDER=
